<?xml version="1.0" encoding="UTF-8" standalone="no"?>
<svg
   xmlns:dc="http://purl.org/dc/elements/1.1/"
   xmlns:cc="http://creativecommons.org/ns#"
   xmlns:rdf="http://www.w3.org/1999/02/22-rdf-syntax-ns#"
   xmlns:svg="http://www.w3.org/2000/svg"
   xmlns="http://www.w3.org/2000/svg"
   xmlns:sodipodi="http://sodipodi.sourceforge.net/DTD/sodipodi-0.dtd"
   xmlns:inkscape="http://www.inkscape.org/namespaces/inkscape"
   data-v-423bf9ae=""
   viewBox="0 0 459.2106 110.1066"
   class="iconLeftSlogan"
   version="1.1"
   id="svg24"
   sodipodi:docname="default-monochrome.svg"
   width="459.2106"
   height="110.1066"
   inkscape:version="0.92.4 (5da689c313, 2019-01-14)">
  <metadata
     id="metadata28">
    <rdf:RDF>
      <cc:Work
         rdf:about="">
        <dc:format>image/svg+xml</dc:format>
        <dc:type
           rdf:resource="http://purl.org/dc/dcmitype/StillImage" />
      </cc:Work>
    </rdf:RDF>
  </metadata>
  <sodipodi:namedview
     pagecolor="#ffffff"
     bordercolor="#666666"
     borderopacity="1"
     objecttolerance="10"
     gridtolerance="10"
     guidetolerance="10"
     inkscape:pageopacity="0"
     inkscape:pageshadow="2"
     inkscape:window-width="1920"
     inkscape:window-height="1017"
     id="namedview26"
     showgrid="false"
     inkscape:zoom="0.62391304"
     inkscape:cx="229.66021"
     inkscape:cy="65.106596"
     inkscape:window-x="-8"
     inkscape:window-y="-8"
     inkscape:window-maximized="1"
     inkscape:current-layer="svg24" />
  <!---->
  <defs
     data-v-423bf9ae=""
     id="defs7">
    <linearGradient
       data-v-423bf9ae=""
       gradientTransform="rotate(25)"
       id="232ae963-3a9f-499f-991d-fa616093ccb8"
       x1="0"
       y1="0"
       x2="1"
       y2="0">
      <stop
         data-v-423bf9ae=""
         offset="0%"
         style="stop-color: rgb(0, 118, 221); stop-opacity: 1;"
         id="stop2" />
      <stop
         data-v-423bf9ae=""
         offset="100%"
         style="stop-color: rgb(0, 205, 233); stop-opacity: 1;"
         id="stop4" />
    </linearGradient>
  </defs>
  <!---->
  <g
     data-v-423bf9ae=""
     id="ef34961c-e320-4b0a-82b2-02aec790290b"
     transform="matrix(5.474453,0,0,5.474453,126.03538,-14.726278)"
     style="fill:#ffffff">
    <path
       d="m 0.39,9.93 c -0.21,0.85 -0.4,1.75 -0.4,2.6 0,0.74 0.3,1.12 0.96,1.12 0.59,0 0.93,-0.13 1.21,-0.63 C 2.42,12.57 2.62,11.86 2.79,11 3.02,9.77 3.07,9.45 3.07,9.13 3.07,8.74 2.93,8.48 2.74,8.26 2.51,7.98 1.93,7.5 1.76,7.25 1.64,7.06 1.6,6.9 1.6,6.71 1.6,6.51 1.65,6.17 1.82,5.19 1.92,4.63 1.99,4.33 2.11,4 2.27,3.58 2.45,3.44 2.77,3.44 c 0.34,0 0.52,0.1 0.52,0.48 0,0.7 -0.17,1.54 -0.36,2.24 H 3.54 C 3.77,5.31 3.93,4.48 3.93,3.77 3.93,2.98 3.57,2.69 2.9,2.69 2.24,2.69 1.89,2.94 1.61,3.54 1.44,3.91 1.3,4.4 1.2,5 1.02,6.06 0.97,6.48 0.97,6.76 c 0,0.38 0.05,0.62 0.3,0.95 0.17,0.23 0.72,0.72 0.94,1.03 0.16,0.21 0.21,0.32 0.21,0.51 0,0.17 -0.04,0.47 -0.25,1.61 -0.15,0.84 -0.32,1.4 -0.5,1.73 -0.16,0.25 -0.33,0.29 -0.58,0.29 -0.4,0 -0.47,-0.25 -0.47,-0.56 0,-0.76 0.19,-1.55 0.37,-2.39 z m 5.87,0.78 c -0.21,1.25 -0.28,1.5 -0.48,1.81 -0.15,0.23 -0.35,0.33 -0.61,0.33 -0.45,0 -0.58,-0.22 -0.58,-0.57 0,-0.25 0.07,-0.63 0.23,-1.57 L 6.2,2.87 H 5.49 L 4.1,10.71 c -0.17,0.91 -0.22,1.4 -0.22,1.75 0,0.8 0.4,1.19 1.13,1.19 0.6,0 1.04,-0.18 1.32,-0.69 0.26,-0.44 0.36,-0.84 0.61,-2.25 L 8.33,2.87 H 7.64 Z m 5.71,2.76 1.86,-10.6 h -1.17 c -2.12,7.17 -2.22,7.49 -2.29,7.76 h -0.04 c 0.04,-0.27 0.06,-0.59 0.49,-7.76 H 9.69 l -1.86,10.6 h 0.61 c 1.5,-8.5 1.57,-8.91 1.61,-9.27 h 0.06 c -0.09,0.55 -0.09,1.47 -0.39,9.27 h 0.36 c 2.42,-7.79 2.7,-8.7 2.84,-9.27 h 0.06 l -1.64,9.27 z m 5.54,0 1.87,-10.6 H 18.2 c -2.11,7.17 -2.21,7.49 -2.28,7.76 h -0.04 c 0.04,-0.27 0.05,-0.59 0.49,-7.76 h -1.14 l -1.86,10.6 h 0.62 C 15.48,4.97 15.55,4.56 15.6,4.2 h 0.05 c -0.08,0.55 -0.08,1.47 -0.39,9.27 h 0.36 c 2.43,-7.79 2.71,-8.7 2.85,-9.27 h 0.05 l -1.64,9.27 z m 3.71,0 0.14,-0.8 h -1.62 l 0.74,-4.23 h 1.63 L 22.23,7.7 h -1.62 l 0.71,-4.06 h 1.64 L 23.1,2.87 h -2.31 l -1.86,10.6 z m 4.25,0 c 0,-0.56 0.02,-0.8 0.19,-2.14 0.16,-1.1 0.21,-1.54 0.21,-2.06 0,-0.32 -0.04,-0.6 -0.24,-0.76 L 25.65,8.46 C 25.82,8.4 26,8.23 26.17,7.91 26.36,7.49 26.47,7.13 26.68,5.94 26.87,4.91 26.92,4.41 26.92,3.95 26.92,3.36 26.66,2.87 26,2.87 h -1.54 l -1.86,10.6 h 0.67 l 0.81,-4.66 h 0.64 c 0.42,0 0.48,0.19 0.48,0.61 0,0.31 -0.07,0.77 -0.24,2.06 -0.17,1.09 -0.21,1.51 -0.21,1.75 0,0.1 0,0.15 0.02,0.24 z M 24.21,8.11 24.99,3.63 h 0.81 c 0.34,0 0.45,0.22 0.45,0.56 0,0.25 -0.07,0.64 -0.24,1.65 -0.24,1.34 -0.33,1.69 -0.53,1.97 -0.18,0.25 -0.35,0.3 -0.66,0.3 z m 6.56,5.36 0.14,-0.8 h -1.52 l 1.72,-9.8 h -0.67 l -1.87,10.6 z m 3.92,0 1.02,-10.6 h -1.17 l -2.77,10.6 h 0.72 l 0.79,-3.11 h 1.05 l -0.31,3.11 z M 34.43,9.62 h -1 C 34.85,4.19 34.96,3.78 35,3.47 h 0.04 C 35,3.78 34.94,4.19 34.43,9.62 Z M 39,13.47 V 13.41 L 38.26,7.77 40.8,2.94 40.81,2.87 H 40.07 C 37.87,7.14 37.8,7.31 37.7,7.53 H 37.65 C 37.7,7.31 37.74,7.11 38.49,2.87 H 37.8 l -1.86,10.6 h 0.68 c 0.9,-5.08 0.93,-5.28 0.96,-5.5 h 0.05 c 0,0.21 0.02,0.4 0.67,5.5 z m 3.5,0 0.14,-0.8 h -1.62 l 0.74,-4.23 h 1.63 L 43.51,7.7 H 41.89 L 42.6,3.64 h 1.64 l 0.14,-0.77 h -2.31 l -1.86,10.6 z m 3.88,0 0.87,-4.96 h 1.58 L 48.96,7.77 H 47.38 L 48.1,3.64 h 1.63 l 0.14,-0.77 h -2.3 l -1.86,10.6 z m 5.13,0 0.14,-0.8 h -1.63 l 0.74,-4.23 h 1.63 L 52.51,7.7 H 50.89 L 51.6,3.64 h 1.64 l 0.14,-0.77 h -2.31 l -1.86,10.6 z m 1.91,-3.54 c -0.21,0.85 -0.4,1.75 -0.4,2.6 0,0.74 0.31,1.12 0.96,1.12 0.59,0 0.93,-0.13 1.21,-0.63 C 55.45,12.57 55.65,11.86 55.82,11 56.06,9.77 56.1,9.45 56.1,9.13 56.1,8.74 55.96,8.48 55.78,8.26 55.54,7.98 54.96,7.5 54.8,7.25 54.67,7.06 54.63,6.9 54.63,6.71 c 0,-0.2 0.05,-0.54 0.22,-1.52 0.1,-0.56 0.17,-0.86 0.3,-1.19 0.15,-0.42 0.33,-0.56 0.65,-0.56 0.34,0 0.52,0.1 0.52,0.48 0,0.7 -0.17,1.54 -0.36,2.24 h 0.61 c 0.23,-0.85 0.4,-1.68 0.4,-2.39 0,-0.79 -0.37,-1.08 -1.04,-1.08 -0.66,0 -1.01,0.25 -1.29,0.85 C 54.47,3.91 54.33,4.4 54.24,5 54.05,6.06 54,6.48 54,6.76 c 0,0.38 0.05,0.62 0.31,0.95 0.16,0.23 0.71,0.72 0.93,1.03 0.16,0.21 0.21,0.32 0.21,0.51 0,0.17 -0.04,0.47 -0.25,1.61 -0.15,0.84 -0.32,1.4 -0.5,1.73 -0.16,0.25 -0.32,0.29 -0.58,0.29 -0.4,0 -0.47,-0.25 -0.47,-0.56 0,-0.76 0.19,-1.55 0.38,-2.39 z m 4.57,3.54 1.72,-9.83 h 1.01 l 0.14,-0.77 h -2.73 l -0.14,0.77 h 1.03 l -1.72,9.83 z"
       id="path9"
       inkscape:connector-curvature="0" />
  </g>
  <!---->
  <g
     data-v-423bf9ae=""
     id="733f059c-c0ba-431b-b370-76e5eb9813ed"
     transform="matrix(1.5845073,0,0,1.5845073,-26.144372,-33.508458)"
     style="fill:#ffffff;stroke:none">
    <switch
       id="switch18">
      <g
         id="g16">
        <path
           d="m 82,67.2 c -0.8,0 -1.5,0.7 -1.5,1.5 0,3.6 -2.9,6.5 -6.5,6.5 -3.6,0 -6.5,-2.9 -6.5,-6.5 0,-0.8 -0.7,-1.5 -1.5,-1.5 -0.8,0 -1.5,0.7 -1.5,1.5 0,3.6 -2.9,6.5 -6.5,6.5 -3.6,0 -6.5,-2.9 -6.5,-6.5 0,-0.8 -0.7,-1.5 -1.5,-1.5 -0.8,0 -1.5,0.7 -1.5,1.5 0,3.6 -2.9,6.5 -6.5,6.5 -3.6,0 -6.5,-2.9 -6.5,-6.5 0,-0.8 -0.7,-1.5 -1.5,-1.5 -0.8,0 -1.5,0.7 -1.5,1.5 0,3.6 -2.9,6.5 -6.5,6.5 -3.6,0 -6.5,-2.9 -6.5,-6.5 0,-0.8 -0.7,-1.5 -1.5,-1.5 -0.8,0 -1.5,0.7 -1.5,1.5 0,5.2 4.3,9.5 9.5,9.5 3.4,0 6.3,-1.8 8,-4.4 1.7,2.6 4.6,4.4 8,4.4 3.4,0 6.3,-1.8 8,-4.4 1.7,2.6 4.6,4.4 8,4.4 3.4,0 6.3,-1.8 8,-4.4 1.7,2.6 4.6,4.4 8,4.4 5.2,0 9.5,-4.3 9.5,-9.5 0,-0.8 -0.7,-1.5 -1.5,-1.5 z m -33.5,-17 c 0,0.8 0.7,1.4 1.5,1.4 h 0.1 c 0.8,0 1.5,-0.7 1.4,-1.6 -0.1,-2.4 0.7,-4.6 2.3,-6.4 1.6,-1.7 3.7,-2.7 6,-2.8 2.5,0 4.5,1.9 4.6,4.3 0,1.2 -0.4,2.4 -1.2,3.3 -0.8,0.9 -1.9,1.4 -3.1,1.5 h -0.5 c -0.8,0 -1.4,-0.6 -1.4,-1.4 0,-0.8 0.6,-1.4 1.4,-1.4 0.8,0 1.5,-0.7 1.5,-1.5 0,-0.8 -0.7,-1.5 -1.5,-1.5 -2.4,0 -4.4,2 -4.4,4.4 0,2.4 2,4.4 4.4,4.4 h 0.5 c 2,-0.1 3.9,-0.9 5.2,-2.4 1.4,-1.5 2.1,-3.4 2,-5.4 -0.2,-4 -3.5,-7.1 -7.4,-7.2 h -0.2 -0.1 -0.4 c -3,0.2 -5.7,1.6 -7.8,3.8 -1.9,2.3 -3,5.3 -2.9,8.5 z"
           id="path12"
           inkscape:connector-curvature="0" />
        <path
           d="m 24.5,60.5 c 4.5,4.1 10.2,6.4 16.3,6.4 h 1 c 0.2,0 0.3,0 0.5,-0.1 3.3,-0.1 6.1,-1.8 7.8,-4.4 1.7,2.6 4.6,4.4 8,4.4 3.4,0 6.3,-1.8 8,-4.4 1.7,2.6 4.6,4.4 8,4.4 5.2,0 9.5,-4.3 9.5,-9.5 0,-0.8 -0.7,-1.5 -1.5,-1.5 -0.8,0 -1.5,0.7 -1.5,1.5 0,3.6 -2.9,6.5 -6.5,6.5 -3.6,0 -6.5,-2.9 -6.5,-6.5 0,-0.8 -0.7,-1.5 -1.5,-1.5 -0.8,0 -1.5,0.7 -1.5,1.5 0,3.6 -2.9,6.5 -6.5,6.5 -3.6,0 -6.5,-2.9 -6.5,-6.5 0,-0.8 -0.7,-1.5 -1.5,-1.5 -0.8,0 -1.5,0.7 -1.5,1.5 0,3.6 -2.9,6.5 -6.5,6.5 -0.2,0 -0.4,0 -0.5,0.1 -5.6,0.2 -10.9,-1.8 -15,-5.6 -4.1,-3.8 -6.5,-9 -6.8,-14.6 v -0.2 c -0.2,-4.9 1.5,-9.7 4.9,-13.3 3.3,-3.6 7.8,-5.7 12.7,-5.9 5.5,-0.1 10,4.2 10.3,9.7 0.1,2.7 -0.8,5.3 -2.7,7.3 -1.8,2 -4.3,3.1 -7,3.3 h -0.6 c -3.5,0 -6.4,-2.9 -6.4,-6.4 0,-3.5 2.9,-6.4 6.4,-6.4 0.1,0 0.3,0 0.4,-0.1 0.1,0 0.3,0.1 0.4,0.1 1.7,0 3,1.3 3,3 0,1.7 -1.3,3 -3,3 -0.8,0 -1.5,0.7 -1.5,1.5 0,0.8 0.7,1.5 1.5,1.5 3.3,0 6,-2.7 6,-6 0,-3.3 -2.7,-6 -6,-6 -0.1,0 -0.3,0 -0.4,0.1 -0.1,0 -0.3,-0.1 -0.4,-0.1 -5.2,0 -9.4,4.2 -9.4,9.4 0,5.2 4.2,9.4 9.4,9.4 h 0.7 c 3.5,-0.1 6.7,-1.6 9.1,-4.2 2.4,-2.6 3.6,-5.9 3.5,-9.4 -0.3,-7 -6,-12.5 -13,-12.6 H 37 c -0.1,0 -0.2,0 -0.3,0.1 -5.4,0.4 -10.5,2.8 -14.2,6.8 -3.9,4.2 -5.9,9.6 -5.7,15.3 v 0.3 c 0.2,6.3 2.9,12.3 7.7,16.6 z"
           id="path14"
           inkscape:connector-curvature="0" />
      </g>
    </switch>
  </g>
  <!---->
  <g
     data-v-423bf9ae=""
     id="1de2354a-ed0d-4418-98cc-acbd6b7a6816"
     transform="matrix(5.2799358,0,0,5.2799358,122.81269,48.912143)"
     style="fill:#ffffff">
    <path
       d="M 6.99,4.83 C 6.99,3.29 5.82,2.1 3.82,2.1 2.11,2.1 0.76,3.14 0.6,4.73 H 1.65 C 1.79,3.7 2.62,3.12 3.85,3.12 c 1.34,0 2.09,0.66 2.09,1.74 0,2.13 -5.21,3.3 -5.21,6.05 v 0.57 H 6.96 V 10.47 H 1.97 C 2.14,8.83 6.99,7.42 6.99,4.83 Z M 18.55,2.1 c -2.18,0 -3.25,1.65 -3.25,4.75 0,3.09 1.07,4.74 3.25,4.74 2.18,0 3.25,-1.65 3.25,-4.74 0,-2.43 -0.7,-4.71 -3.25,-4.75 z m 0,8.47 c -1.54,0 -2.2,-1.25 -2.2,-3.72 0,-2.48 0.66,-3.73 2.2,-3.73 1.54,0 2.2,1.25 2.2,3.73 0,1.72 -0.3,3.68 -2.2,3.72 z M 36.39,4.83 C 36.39,3.29 35.22,2.1 33.22,2.1 31.51,2.1 30.16,3.14 30,4.73 h 1.05 c 0.14,-1.03 0.97,-1.61 2.2,-1.61 1.34,0 2.09,0.66 2.09,1.74 0,2.13 -5.21,3.3 -5.21,6.05 v 0.57 h 6.23 v -1.01 h -4.99 c 0.17,-1.64 5.02,-3.05 5.02,-5.64 z m 14.7,0 c 0,-1.54 -1.17,-2.73 -3.17,-2.73 -1.71,0 -3.06,1.04 -3.22,2.63 h 1.05 c 0.14,-1.03 0.97,-1.61 2.2,-1.61 1.34,0 2.09,0.66 2.09,1.74 0,2.13 -5.21,3.3 -5.21,6.05 v 0.57 h 6.23 v -1.01 h -4.99 c 0.17,-1.64 5.02,-3.05 5.02,-5.64 z"
       id="path21"
       inkscape:connector-curvature="0" />
  </g>
</svg>
