<svg data-v-423bf9ae="" xmlns="http://www.w3.org/2000/svg" viewBox="0 0 333.2299489958226 60" class="font"><!----><!----><!----><g data-v-423bf9ae="" id="0291396c-8a90-46f1-9292-6bcb871c9ee5" fill="black" transform="matrix(5.474452972412109,0,0,5.474452972412109,0.05474746599793434,-14.72628116607666)"><path d="M0.39 9.93C0.18 10.78-0.01 11.68-0.01 12.53C-0.01 13.27 0.29 13.65 0.95 13.65C1.54 13.65 1.88 13.52 2.16 13.02C2.42 12.57 2.62 11.86 2.79 11.00C3.02 9.77 3.07 9.45 3.07 9.13C3.07 8.74 2.93 8.48 2.74 8.26C2.51 7.98 1.93 7.50 1.76 7.25C1.64 7.06 1.60 6.90 1.60 6.71C1.60 6.51 1.65 6.17 1.82 5.19C1.92 4.63 1.99 4.33 2.11 4.00C2.27 3.58 2.45 3.44 2.77 3.44C3.11 3.44 3.29 3.54 3.29 3.92C3.29 4.62 3.12 5.46 2.93 6.16L3.54 6.16C3.77 5.31 3.93 4.48 3.93 3.77C3.93 2.98 3.57 2.69 2.90 2.69C2.24 2.69 1.89 2.94 1.61 3.54C1.44 3.91 1.30 4.40 1.20 5.00C1.02 6.06 0.97 6.48 0.97 6.76C0.97 7.14 1.02 7.38 1.27 7.71C1.44 7.94 1.99 8.43 2.21 8.74C2.37 8.95 2.42 9.06 2.42 9.25C2.42 9.42 2.38 9.72 2.17 10.86C2.02 11.70 1.85 12.26 1.67 12.59C1.51 12.84 1.34 12.88 1.09 12.88C0.69 12.88 0.62 12.63 0.62 12.32C0.62 11.56 0.81 10.77 0.99 9.93ZM6.26 10.71C6.05 11.96 5.98 12.21 5.78 12.52C5.63 12.75 5.43 12.85 5.17 12.85C4.72 12.85 4.59 12.63 4.59 12.28C4.59 12.03 4.66 11.65 4.82 10.71L6.20 2.87L5.49 2.87L4.10 10.71C3.93 11.62 3.88 12.11 3.88 12.46C3.88 13.26 4.28 13.65 5.01 13.65C5.61 13.65 6.05 13.47 6.33 12.96C6.59 12.52 6.69 12.12 6.94 10.71L8.33 2.87L7.64 2.87ZM11.97 13.47L13.83 2.87L12.66 2.87C10.54 10.04 10.44 10.36 10.37 10.63L10.33 10.63C10.37 10.36 10.39 10.04 10.82 2.87L9.69 2.87L7.83 13.47L8.44 13.47C9.94 4.97 10.01 4.56 10.05 4.20L10.11 4.20C10.02 4.75 10.02 5.67 9.72 13.47L10.08 13.47C12.50 5.68 12.78 4.77 12.92 4.20L12.98 4.20L11.34 13.47ZM17.51 13.47L19.38 2.87L18.20 2.87C16.09 10.04 15.99 10.36 15.92 10.63L15.88 10.63C15.92 10.36 15.93 10.04 16.37 2.87L15.23 2.87L13.37 13.47L13.99 13.47C15.48 4.97 15.55 4.56 15.60 4.20L15.65 4.20C15.57 4.75 15.57 5.67 15.26 13.47L15.62 13.47C18.05 5.68 18.33 4.77 18.47 4.20L18.52 4.20L16.88 13.47ZM21.22 13.47L21.36 12.67L19.74 12.67L20.48 8.44L22.11 8.44L22.23 7.70L20.61 7.70L21.32 3.64L22.96 3.64L23.10 2.87L20.79 2.87L18.93 13.47ZM25.47 13.47C25.47 12.91 25.49 12.67 25.66 11.33C25.82 10.23 25.87 9.79 25.87 9.27C25.87 8.95 25.83 8.67 25.63 8.51L25.65 8.46C25.82 8.40 26.00 8.23 26.17 7.91C26.36 7.49 26.47 7.13 26.68 5.94C26.87 4.91 26.92 4.41 26.92 3.95C26.92 3.36 26.66 2.87 26.00 2.87L24.46 2.87L22.60 13.47L23.27 13.47L24.08 8.81L24.72 8.81C25.14 8.81 25.20 9.00 25.20 9.42C25.20 9.73 25.13 10.19 24.96 11.48C24.79 12.57 24.75 12.99 24.75 13.23C24.75 13.33 24.75 13.38 24.77 13.47ZM24.21 8.11L24.99 3.63L25.80 3.63C26.14 3.63 26.25 3.85 26.25 4.19C26.25 4.44 26.18 4.83 26.01 5.84C25.77 7.18 25.68 7.53 25.48 7.81C25.30 8.06 25.13 8.11 24.82 8.11ZM30.77 13.47L30.91 12.67L29.39 12.67L31.11 2.87L30.44 2.87L28.57 13.47ZM34.69 13.47L35.71 2.87L34.54 2.87L31.77 13.47L32.49 13.47L33.28 10.36L34.33 10.36L34.02 13.47ZM34.43 9.62L33.43 9.62C34.85 4.19 34.96 3.78 35 3.47L35.04 3.47C35 3.78 34.94 4.19 34.43 9.62ZM39.00 13.47L39.00 13.41L38.26 7.77L40.80 2.94L40.81 2.87L40.07 2.87C37.87 7.14 37.80 7.31 37.70 7.53L37.65 7.53C37.70 7.31 37.74 7.11 38.49 2.87L37.80 2.87L35.94 13.47L36.62 13.47C37.52 8.39 37.55 8.19 37.58 7.97L37.63 7.97C37.63 8.18 37.65 8.37 38.30 13.47ZM42.50 13.47L42.64 12.67L41.02 12.67L41.76 8.44L43.39 8.44L43.51 7.70L41.89 7.70L42.60 3.64L44.24 3.64L44.38 2.87L42.07 2.87L40.21 13.47ZM46.38 13.47L47.25 8.51L48.83 8.51L48.96 7.77L47.38 7.77L48.10 3.64L49.73 3.64L49.87 2.87L47.57 2.87L45.71 13.47ZM51.51 13.47L51.65 12.67L50.02 12.67L50.76 8.44L52.39 8.44L52.51 7.70L50.89 7.70L51.60 3.64L53.24 3.64L53.38 2.87L51.07 2.87L49.21 13.47ZM53.42 9.93C53.21 10.78 53.02 11.68 53.02 12.53C53.02 13.27 53.33 13.65 53.98 13.65C54.57 13.65 54.91 13.52 55.19 13.02C55.45 12.57 55.65 11.86 55.82 11.00C56.06 9.77 56.10 9.45 56.10 9.13C56.10 8.74 55.96 8.48 55.78 8.26C55.54 7.98 54.96 7.50 54.80 7.25C54.67 7.06 54.63 6.90 54.63 6.71C54.63 6.51 54.68 6.17 54.85 5.19C54.95 4.63 55.02 4.33 55.15 4.00C55.30 3.58 55.48 3.44 55.80 3.44C56.14 3.44 56.32 3.54 56.32 3.92C56.32 4.62 56.15 5.46 55.96 6.16L56.57 6.16C56.80 5.31 56.97 4.48 56.97 3.77C56.97 2.98 56.60 2.69 55.93 2.69C55.27 2.69 54.92 2.94 54.64 3.54C54.47 3.91 54.33 4.40 54.24 5.00C54.05 6.06 54.00 6.48 54.00 6.76C54.00 7.14 54.05 7.38 54.31 7.71C54.47 7.94 55.02 8.43 55.24 8.74C55.40 8.95 55.45 9.06 55.45 9.25C55.45 9.42 55.41 9.72 55.20 10.86C55.05 11.70 54.88 12.26 54.70 12.59C54.54 12.84 54.38 12.88 54.12 12.88C53.72 12.88 53.65 12.63 53.65 12.32C53.65 11.56 53.84 10.77 54.03 9.93ZM57.99 13.47L59.71 3.64L60.72 3.64L60.86 2.87L58.13 2.87L57.99 3.64L59.02 3.64L57.30 13.47Z"></path></g><!----><!----></svg>